<svg width="160" height="41" viewBox="0 0 160 41" fill="none" xmlns="http://www.w3.org/2000/svg">
<path d="M5.752 35.464C5.572 35.716 5.608 35.932 5.5 36.112C6.004 36.292 6.004 36.292 5.824 36.688C5.752 36.832 5.68 36.976 5.572 37.12C5.32 37.552 4.96 37.66 4.456 37.516C4.06 37.408 3.88 37.156 3.88 36.652C3.88 35.968 4.024 35.32 4.204 34.672C4.312 34.24 4.24 33.988 3.952 33.628C3.052 32.62 2.188 31.576 1.612 30.316C1.252 29.524 0.964 28.696 0.964 27.832C0.964 27.292 1.108 26.788 1.36 26.32C1.468 26.14 1.576 25.924 1.576 25.708C1.576 25.528 1.612 25.384 1.648 25.24C1.864 24.664 2.152 24.592 2.728 24.772C3.088 24.88 3.268 25.168 3.484 25.42C3.736 25.672 3.772 26.068 3.7 26.428C3.628 27.076 3.916 27.508 4.384 27.868C4.888 28.192 5.392 28.444 5.968 28.588C6.184 28.696 6.292 28.624 6.4 28.408C6.724 27.688 7.084 26.968 7.444 26.212C8.524 23.836 9.748 21.496 11.044 19.192C11.728 17.932 12.376 16.672 13.168 15.448C13.924 14.224 14.608 12.928 15.4 11.704C16.444 10.12 17.344 8.464 18.46 6.952C18.496 6.88 18.568 6.844 18.604 6.772C18.748 6.556 18.892 6.304 19.18 6.268C19.504 6.196 19.756 6.412 20.044 6.448C20.224 6.484 20.152 6.592 20.116 6.664C20.044 6.844 19.828 6.988 19.792 7.24C20.116 7.132 20.188 6.808 20.404 6.736C20.872 7.348 20.908 7.348 20.476 8.032C19.396 9.796 18.28 11.524 17.2 13.324C15.976 15.376 14.788 17.464 13.636 19.552C12.88 20.956 12.196 22.36 11.44 23.728C10.648 25.132 9.964 26.572 9.244 27.976C9.1 28.264 8.848 28.48 8.812 28.876C9.496 28.948 10.108 28.84 10.756 28.768C12.196 28.552 13.636 28.192 15.04 27.796C16.264 27.436 17.488 26.968 18.748 26.572C19.18 26.428 19.612 26.284 20.08 26.212C21.088 26.104 21.808 26.608 22.384 27.328C22.456 27.436 22.528 27.58 22.564 27.688C22.6 27.868 22.6 28.048 22.42 28.156C22.276 28.3 22.096 28.372 21.916 28.228C21.016 27.616 20.044 27.796 19.108 27.904C16.624 28.192 14.176 28.696 11.728 29.092C10.756 29.236 9.784 29.416 8.812 29.488C8.524 29.488 8.38 29.596 8.236 29.848C7.876 30.64 7.48 31.432 7.084 32.188C6.796 32.692 6.544 33.232 6.292 33.772C6.184 33.988 6.22 34.132 6.4 34.312C8.128 35.752 9.928 36.976 12.196 37.372C13.852 37.66 15.436 37.48 17.02 36.904C18.784 36.256 20.332 35.212 21.736 33.88C23.248 32.44 24.472 30.748 25.516 28.912C26.848 26.572 27.712 24.052 28.432 21.424C29.044 19.228 29.404 16.996 29.584 14.692C29.764 12.352 29.62 10.012 29.008 7.744C28.792 6.808 28.36 5.98 27.856 5.188C26.92 3.676 25.48 3.028 23.788 2.74C22.06 2.452 20.368 2.776 18.676 3.28C17.056 3.784 15.508 4.504 14.032 5.368C12.124 6.448 10.396 7.744 8.884 9.328C8.02 10.264 7.264 11.308 6.94 12.604C6.58 13.864 7.264 15.124 8.524 15.376C8.776 15.448 8.92 15.592 9.064 15.772C8.776 16.024 8.452 16.024 8.092 15.952C6.184 15.628 5.176 14.008 5.032 12.604C4.96 11.812 5.14 11.092 5.428 10.408C5.824 9.508 6.4 8.716 7.048 7.96C8.092 6.808 9.244 5.836 10.54 4.972C13.204 3.172 16.048 1.804 19.216 1.192C21.772 0.723999 24.256 0.868 26.56 2.128C28.216 2.992 29.44 4.288 30.268 5.944C31.276 7.888 31.78 9.94 31.924 12.136C32.14 15.376 31.744 18.544 30.952 21.64C30.448 23.656 29.836 25.672 28.864 27.58C28.252 28.84 27.568 30.136 26.74 31.288C25.552 32.944 24.184 34.492 22.564 35.716C20.548 37.3 18.316 38.416 15.76 38.776C12.664 39.172 9.856 38.56 7.336 36.688C7.048 36.508 6.796 36.328 6.544 36.112C6.256 35.896 6.04 35.68 5.752 35.464ZM5.032 35.5C4.816 35.68 4.888 35.896 4.816 36.184C5.068 35.932 5.032 35.716 5.032 35.5C5.212 35.392 5.104 35.212 5.14 35.068C5.032 35.176 4.996 35.32 5.032 35.5ZM7.408 9.652C7.012 10.012 6.688 10.444 6.58 11.02C6.904 10.588 7.264 10.192 7.48 9.688C7.624 9.58 7.696 9.472 7.768 9.256C7.552 9.364 7.48 9.472 7.408 9.652ZM12.988 18.652C13.276 18.364 13.492 18.004 13.672 17.608C14.284 16.564 14.86 15.52 15.508 14.476C16.624 12.604 17.812 10.732 18.964 8.86C19.036 8.788 19.144 8.716 19 8.608C18.856 8.608 18.82 8.716 18.748 8.824C18.352 9.472 17.92 10.084 17.524 10.732C16.48 12.424 15.436 14.116 14.464 15.88C14.068 16.564 13.744 17.248 13.312 17.932C13.168 18.148 12.988 18.364 12.988 18.652C12.664 19.012 12.484 19.408 12.34 19.876C12.592 19.48 12.88 19.12 12.988 18.652ZM5.932 29.488C4.492 29.236 3.268 28.696 2.188 27.616C2.188 28.228 2.26 28.66 2.44 29.092C2.944 30.28 3.628 31.396 4.492 32.404C4.564 32.476 4.636 32.584 4.816 32.548C5.14 31.54 5.5 30.532 5.932 29.488ZM30.484 18.832C30.088 20.524 29.62 22.18 29.26 23.836C29.908 22.252 30.34 20.56 30.484 18.832ZM11.404 21.64C11.62 21.352 11.728 21.172 11.764 20.92C11.584 21.1 11.476 21.316 11.404 21.64ZM38.6318 30.964C38.9918 30.748 39.2078 30.532 39.4598 30.316C40.6838 29.128 41.7638 27.832 42.8798 26.536C43.2038 26.14 43.5638 25.78 43.8878 25.384C44.0318 25.24 44.1398 25.168 44.3198 25.348C44.4278 25.456 44.4638 25.528 44.3558 25.672C44.3198 25.744 44.2478 25.816 44.2118 25.888C43.0598 27.472 41.8358 29.02 40.5758 30.532C40.1798 30.964 39.7478 31.396 39.2798 31.792C38.8118 32.188 38.2718 32.26 37.7318 32.044C37.1558 31.792 36.9038 31.288 36.8678 30.676C36.7958 29.884 36.9038 29.092 37.0838 28.3C36.8678 28.264 36.8318 28.408 36.7958 28.48C36.2198 29.236 35.6798 29.992 35.1038 30.748C34.8878 31.036 34.6358 31.324 34.3838 31.576C33.3758 32.656 31.9358 32.116 31.4318 31.036C31.0718 30.28 31.0358 29.488 31.1798 28.66C31.5398 26.14 32.6918 24.016 34.4918 22.252C34.9238 21.784 35.4278 21.424 36.0038 21.136C37.4438 20.416 38.7398 20.956 39.4958 22.144C39.6038 22.288 39.6398 22.468 39.8198 22.576C40.0358 22.324 40.2518 22.072 40.5038 21.82C40.8998 21.388 41.1878 21.352 41.7278 21.568C41.9798 21.64 41.9438 21.964 42.0158 21.964C42.3038 21.928 42.3398 22.108 42.4118 22.252C42.5918 22.54 42.5198 22.792 42.3758 23.044C42.0518 23.62 41.6918 24.196 41.3318 24.772C40.2518 26.608 39.3518 28.552 38.7398 30.568C38.7038 30.676 38.6678 30.748 38.6318 30.964ZM33.2678 30.532C33.5558 30.28 33.7358 30.1 33.8798 29.884C35.3918 28.156 36.8318 26.392 38.3438 24.664C38.7038 24.268 38.8118 23.908 38.5958 23.44C38.5598 23.368 38.5238 23.296 38.4878 23.224C38.3078 22.756 38.2358 22.72 37.7678 22.972C37.3718 23.188 37.0478 23.44 36.7238 23.764C35.0318 25.42 33.9518 27.436 33.3398 29.704C33.2678 29.956 33.2318 30.172 33.2678 30.532ZM36.0398 23.008C35.2838 23.44 34.7798 24.052 34.5278 24.664C35.0318 24.052 35.5358 23.548 36.0398 23.008ZM40.2158 24.556C40.2518 24.628 40.2878 24.628 40.3238 24.592C40.5758 24.196 40.8638 23.836 41.0438 23.368C40.6838 23.728 40.4678 24.124 40.2158 24.556ZM47.0268 21.748C46.9908 21.856 46.9548 22.036 46.8828 22.18C47.0988 22.18 47.0988 21.964 47.2428 21.928C47.7108 22.36 47.7468 22.504 47.4948 23.08C47.3508 23.44 47.2068 23.764 47.0268 24.088C46.8828 24.412 46.7388 24.7 46.6308 25.06C47.0268 24.664 47.3868 24.232 47.7828 23.836C48.3228 23.224 48.9708 22.684 49.6188 22.144C49.9788 21.856 50.4108 21.568 50.8788 21.388C51.4188 21.136 51.9588 21.172 52.4988 21.388C52.7868 21.532 52.9668 21.784 53.1828 22C53.4348 22.252 53.4348 22.612 53.2188 22.972C52.7148 23.836 52.2108 24.736 51.7428 25.636C50.9148 27.256 50.1948 28.948 49.6548 30.676C49.5828 30.82 49.5828 31 49.5468 31.144C49.5108 31.18 49.5468 31.216 49.5468 31.252C49.7268 31.324 49.7628 31.18 49.8348 31.108C51.1668 29.884 52.2828 28.48 53.3988 27.076C53.8308 26.536 54.2628 25.96 54.7308 25.456C54.9108 25.276 55.0188 25.312 55.1988 25.492C55.3428 25.636 55.2348 25.708 55.1628 25.816C54.8388 26.32 54.4788 26.86 54.1188 27.364C53.1468 28.696 52.1388 29.992 51.0948 31.288C50.8428 31.576 50.5188 31.828 50.2668 32.152C49.7988 32.62 49.2588 32.728 48.6468 32.512C48.0348 32.296 47.7828 31.792 47.7108 31.18C47.6388 30.388 47.7108 29.596 47.8908 28.804C48.2148 27.328 48.7548 25.924 49.4388 24.556C49.5468 24.34 49.6548 24.124 49.7988 23.8C49.5468 23.872 49.4388 24.052 49.2948 24.16C47.2428 26.284 45.5148 28.66 44.0388 31.216C43.8588 31.504 43.6788 31.828 43.4988 32.116C43.2108 32.476 42.8508 32.692 42.3468 32.656C41.6988 32.584 41.3388 32.116 41.4468 31.468C41.5548 30.964 41.7348 30.496 41.9148 29.992C42.8148 27.724 43.7868 25.492 44.8308 23.296C45.0468 22.9 45.2268 22.468 45.4428 22.072C45.7668 21.388 46.0548 21.28 46.7388 21.532C46.8468 21.568 46.9548 21.604 47.0268 21.748ZM46.1268 23.8C45.6948 24.484 45.3348 25.24 45.0468 25.996C45.4428 25.276 45.8388 24.592 46.1268 23.8ZM51.1308 24.628C51.3468 24.448 51.4188 24.232 51.5628 24.016C51.6708 23.8 51.8148 23.584 51.9228 23.368C51.4908 23.692 51.3108 24.16 51.1308 24.628ZM55.1541 31.288C56.0901 30.46 56.8821 29.596 57.6381 28.696C58.3221 27.832 59.0421 26.932 59.7261 26.068C59.9061 25.888 60.0501 25.672 60.2301 25.492C60.5541 25.168 60.5541 25.168 60.9141 25.528C59.9421 26.932 58.9341 28.336 57.8901 29.704C57.2421 30.532 56.6301 31.36 55.8381 32.08C55.5501 32.332 55.2621 32.512 54.8661 32.548C54.0381 32.584 53.4621 32.08 53.3181 31.216C53.2101 30.352 53.2821 29.488 53.4981 28.66C54.0741 26.212 55.0821 23.98 56.5941 22C56.6661 21.856 56.7741 21.748 56.8821 21.64C57.4581 21.064 57.8541 21.064 58.4301 21.712C58.5021 21.784 58.6101 21.712 58.6821 21.784C58.9341 22 59.0421 22.432 58.8621 22.756C58.5741 23.368 58.2501 23.944 57.8901 24.556C56.8101 26.428 55.9461 28.444 55.2621 30.532C55.1901 30.748 55.0821 30.964 55.1541 31.288ZM56.6661 24.664C56.8821 24.484 56.9901 24.232 57.0981 23.98C57.2061 23.764 57.4581 23.584 57.4581 23.296C57.3141 23.332 57.2781 23.404 57.2421 23.476C56.9901 23.836 56.8101 24.232 56.6661 24.664ZM57.3861 18.436C57.4221 17.14 58.3941 16.348 59.6541 16.564C59.7261 16.6 59.8341 16.636 59.9061 16.6C60.3381 16.456 60.6261 16.672 60.8781 16.924C61.2021 17.212 61.4181 17.536 61.5261 17.932C61.5981 18.148 61.5981 18.364 61.5621 18.58C61.3461 19.444 60.6981 19.912 59.9061 20.2C59.1501 20.452 58.5021 20.236 57.9261 19.696C57.5661 19.372 57.3861 18.904 57.3861 18.436ZM59.1501 19.264C59.1861 19.264 59.2581 19.264 59.3301 19.228C59.8341 19.012 60.1581 18.58 60.3381 18.076C60.4101 17.896 60.2661 17.86 60.1221 17.86C59.7261 17.896 58.9701 18.616 58.8981 19.012C58.8981 19.156 58.9341 19.264 59.1501 19.264ZM72.62 15.448C72.368 15.772 72.008 15.88 71.612 15.808C70.604 15.7 69.884 15.124 69.344 14.332C68.696 13.288 68.516 12.172 68.84 10.984C69.092 10.228 69.416 9.472 69.884 8.824C72.404 5.404 75.572 2.884 79.748 1.876C81.908 1.336 84.104 1.084 86.3 1.372C89.648 1.804 92.348 3.316 94.04 6.34C94.904 7.852 95.12 9.508 94.94 11.2C94.616 14.404 93.104 17.104 91.124 19.588C89.036 22.216 86.372 24.196 83.456 25.816C81.872 26.716 80.252 27.472 78.524 28.048C78.452 28.048 78.38 28.12 78.272 28.156C78.596 28.552 78.956 28.876 79.316 29.2C81.404 31.144 83.492 33.088 85.652 34.924C87.488 36.472 89.576 37.66 91.952 38.2C92.708 38.38 93.464 38.452 94.22 38.272C94.652 38.164 95.048 38.056 95.264 37.624C95.264 37.588 95.3 37.588 95.3 37.588C95.48 37.3 95.696 37.12 96.02 37.192C96.344 37.3 96.488 37.552 96.56 37.84C96.884 39.352 95.804 40.648 94.256 40.612C93.86 40.576 93.464 40.54 93.068 40.432C92.06 40.144 91.088 39.712 90.152 39.172C87.956 37.948 86.012 36.436 84.176 34.708C82.016 32.656 79.82 30.64 77.516 28.768C77.228 28.516 77.012 28.48 76.652 28.552C75.464 28.876 74.24 29.128 73.052 29.344C72.8 29.38 72.656 29.452 72.548 29.704C71.864 31.432 71.072 33.124 70.316 34.852C69.884 35.896 69.632 36.976 69.416 38.056C69.38 38.308 69.344 38.452 69.632 38.524C69.848 38.596 69.812 38.74 69.704 38.92C69.488 39.28 69.02 39.424 68.588 39.352C68.192 39.244 67.976 38.992 67.904 38.452C67.832 37.624 67.976 36.832 68.084 36.004C68.372 33.052 69.524 30.352 70.64 27.652C71 26.788 71.36 25.888 71.756 24.952C71 24.628 70.244 24.484 69.416 24.484C69.236 24.52 69.092 24.592 68.984 24.772C68.768 24.988 68.624 24.988 68.444 24.736C68.372 24.628 68.3 24.484 68.264 24.34C68.192 24.052 68.192 23.728 68.264 23.404C68.552 22.432 69.02 22.144 70.028 22.396C70.748 22.576 71.396 22.936 72.044 23.26C72.44 23.476 72.44 23.476 72.62 23.08C73.88 20.308 75.212 17.572 76.616 14.908C77.84 12.676 79.1 10.444 80.504 8.32C80.756 7.96 81.008 7.564 81.296 7.204C81.764 6.52 81.872 6.34 82.952 6.88C82.88 7.24 82.556 7.528 82.484 7.888C82.772 7.672 82.88 7.312 83.168 7.096C83.6 7.456 83.672 7.708 83.492 8.176C83.312 8.572 83.096 8.896 82.916 9.256C81.476 11.632 80.072 14.008 78.776 16.456C77.372 19.12 76.04 21.82 74.78 24.556C74.564 24.988 74.456 24.952 74.96 25.348C75.536 25.816 76.076 26.284 76.58 26.752C76.796 26.932 76.976 26.968 77.228 26.896C80.684 25.564 83.96 23.944 86.732 21.46C89.252 19.228 91.16 16.564 92.168 13.324C92.6 12.064 92.852 10.768 92.816 9.436C92.78 6.232 90.908 3.82 87.812 3.028C86.444 2.668 85.04 2.632 83.6 2.74C78.704 3.1 74.888 5.476 71.936 9.292C71.324 10.084 70.82 10.948 70.604 11.92C70.424 12.784 70.568 13.612 71.036 14.368C71.288 14.8 71.612 15.16 72.188 15.16C72.404 15.124 72.512 15.268 72.62 15.448ZM69.092 36.796C69.056 36.796 68.984 36.796 68.984 36.832C68.804 37.3 68.768 37.768 68.804 38.272C68.912 37.768 68.912 37.264 69.056 36.796C69.056 36.652 69.128 36.472 69.056 36.292C69.02 36.508 68.984 36.652 69.092 36.796ZM76.328 18.976C76.472 18.832 76.508 18.688 76.58 18.544C78.236 15.412 79.928 12.316 81.8 9.328C81.872 9.22 81.944 9.148 81.98 9.04C82.016 9.004 82.016 8.932 81.98 8.896C81.908 8.824 81.836 8.86 81.764 8.932C81.728 9.004 81.656 9.076 81.62 9.148C79.676 12.208 77.948 15.412 76.364 18.652C76.328 18.724 76.256 18.796 76.328 18.976ZM73.232 28.156C74.096 27.94 74.924 27.724 75.752 27.4C75.248 26.932 74.744 26.608 74.24 26.284C74.132 26.212 74.024 26.212 73.988 26.32C73.736 26.932 73.448 27.472 73.232 28.156ZM93.932 11.344C93.752 12.172 93.572 12.964 93.392 13.828C93.788 13.144 94.04 12.136 93.932 11.344ZM91.7 39.136C92.168 39.424 92.6 39.64 93.14 39.496C92.672 39.388 92.168 39.28 91.7 39.136ZM69.92 11.488C70.1 11.344 70.136 11.128 70.208 10.912C70.28 10.696 70.424 10.516 70.388 10.228C69.992 10.804 69.956 10.984 69.92 11.488ZM75.284 21.136C75.104 21.244 75.032 21.424 75.032 21.604C75.104 21.46 75.212 21.28 75.284 21.136ZM69.524 23.728C69.74 23.692 69.884 23.764 69.992 23.656C69.884 23.584 69.74 23.548 69.524 23.728ZM98.081 30.964C98.441 30.748 98.657 30.532 98.909 30.316C100.133 29.128 101.213 27.832 102.329 26.536C102.653 26.14 103.013 25.78 103.337 25.384C103.481 25.24 103.589 25.168 103.769 25.348C103.877 25.456 103.913 25.528 103.805 25.672C103.769 25.744 103.697 25.816 103.661 25.888C102.509 27.472 101.285 29.02 100.025 30.532C99.629 30.964 99.197 31.396 98.729 31.792C98.261 32.188 97.721 32.26 97.181 32.044C96.605 31.792 96.353 31.288 96.317 30.676C96.245 29.884 96.353 29.092 96.533 28.3C96.317 28.264 96.281 28.408 96.245 28.48C95.669 29.236 95.129 29.992 94.553 30.748C94.337 31.036 94.085 31.324 93.833 31.576C92.825 32.656 91.385 32.116 90.881 31.036C90.521 30.28 90.485 29.488 90.629 28.66C90.989 26.14 92.141 24.016 93.941 22.252C94.373 21.784 94.877 21.424 95.453 21.136C96.893 20.416 98.189 20.956 98.945 22.144C99.053 22.288 99.089 22.468 99.269 22.576C99.485 22.324 99.701 22.072 99.953 21.82C100.349 21.388 100.637 21.352 101.177 21.568C101.429 21.64 101.393 21.964 101.465 21.964C101.753 21.928 101.789 22.108 101.861 22.252C102.041 22.54 101.969 22.792 101.825 23.044C101.501 23.62 101.141 24.196 100.781 24.772C99.701 26.608 98.801 28.552 98.189 30.568C98.153 30.676 98.117 30.748 98.081 30.964ZM92.717 30.532C93.005 30.28 93.185 30.1 93.329 29.884C94.841 28.156 96.281 26.392 97.793 24.664C98.153 24.268 98.261 23.908 98.045 23.44C98.009 23.368 97.973 23.296 97.937 23.224C97.757 22.756 97.685 22.72 97.217 22.972C96.821 23.188 96.497 23.44 96.173 23.764C94.481 25.42 93.401 27.436 92.789 29.704C92.717 29.956 92.681 30.172 92.717 30.532ZM95.489 23.008C94.733 23.44 94.229 24.052 93.977 24.664C94.481 24.052 94.985 23.548 95.489 23.008ZM99.665 24.556C99.701 24.628 99.737 24.628 99.773 24.592C100.025 24.196 100.313 23.836 100.493 23.368C100.133 23.728 99.917 24.124 99.665 24.556ZM113.604 31.324C113.964 31 114.288 30.712 114.576 30.424C115.548 29.38 116.484 28.264 117.384 27.112C117.852 26.536 118.248 25.96 118.788 25.42C118.932 25.24 119.076 25.276 119.22 25.456C119.364 25.564 119.292 25.672 119.22 25.78C118.86 26.284 118.5 26.788 118.14 27.292C117.168 28.66 116.196 29.956 115.152 31.252C114.9 31.54 114.576 31.792 114.288 32.116C113.82 32.584 113.28 32.692 112.668 32.476C112.092 32.26 111.804 31.756 111.768 31.18C111.66 30.352 111.732 29.56 111.912 28.768C112.272 27.076 112.956 25.492 113.748 23.944C113.784 23.872 113.856 23.836 113.82 23.728C113.64 23.764 113.568 23.908 113.46 24.016C111.948 25.492 110.652 27.148 109.464 28.912C109.32 29.128 109.14 29.38 108.996 29.596C108.672 30.028 108.276 30.1 107.808 29.812C107.34 29.56 107.16 29.092 107.124 28.588C107.088 28.156 107.196 27.76 107.34 27.4C107.7 26.464 108.168 25.6 108.6 24.7C108.636 24.592 108.708 24.52 108.672 24.34C108.168 24.808 107.7 25.312 107.268 25.816C105.576 27.76 104.1 29.848 102.804 32.08C102.48 32.584 102.12 32.728 101.544 32.584C101.076 32.476 100.824 32.152 100.824 31.684C100.824 31.18 100.968 30.676 101.112 30.208C101.544 28.84 102.12 27.508 102.732 26.176C103.416 24.808 104.1 23.476 104.784 22.108C104.892 21.928 104.964 21.748 105.108 21.568C105.324 21.244 106.188 21.172 106.512 21.424C106.584 21.496 106.584 21.568 106.548 21.64C106.476 21.856 106.404 22.036 106.296 22.288C106.512 22.144 106.584 21.964 106.656 21.82C106.8 21.604 106.908 21.64 107.052 21.784C107.376 22.108 107.448 22.36 107.268 22.828C107.016 23.44 106.728 24.016 106.476 24.628C106.404 24.736 106.332 24.88 106.368 25.06C106.584 24.772 106.8 24.52 107.016 24.268C107.88 23.224 108.78 22.288 109.788 21.424C110.328 20.992 110.76 20.956 111.372 21.316C111.804 21.568 111.948 21.928 111.84 22.432C111.768 22.72 111.66 23.008 111.516 23.296C111.372 23.692 111.192 24.088 111.012 24.52C111.192 24.52 111.228 24.376 111.3 24.304C112.02 23.548 112.74 22.828 113.532 22.18C114 21.82 114.468 21.496 115.008 21.316C115.368 21.172 115.728 21.064 116.088 21.208C116.376 21.352 116.772 21.28 116.916 21.748C116.916 21.784 117.168 21.784 117.24 21.928C117.42 22.288 117.456 22.576 117.276 22.936C116.736 23.836 116.232 24.736 115.764 25.672C114.936 27.256 114.216 28.912 113.676 30.64C113.64 30.784 113.604 30.964 113.568 31.108C113.568 31.144 113.568 31.18 113.604 31.324ZM103.74 27.616C104.568 26.104 105.396 24.592 106.116 23.008C106.08 23.008 106.008 22.972 105.972 22.972C105.252 24.52 104.496 26.068 103.74 27.616ZM116.016 23.26C115.584 23.584 115.296 24.088 115.152 24.664C115.476 24.196 115.728 23.764 116.016 23.26ZM125.471 31.18C126.011 30.892 126.371 30.496 126.731 30.1C128.027 28.696 129.359 27.328 130.439 25.744C130.547 25.636 130.655 25.492 130.871 25.528C131.087 25.6 131.195 25.672 131.051 25.924C130.871 26.212 130.691 26.536 130.475 26.824C129.323 28.408 128.027 29.92 126.767 31.396C126.407 31.828 125.975 32.188 125.399 32.26C124.679 32.368 124.103 32.08 123.779 31.468C123.455 30.82 123.491 30.136 123.563 29.416C123.599 28.984 123.707 28.516 123.779 28.012C123.599 28.12 123.527 28.264 123.419 28.408C122.807 29.2 122.231 30.028 121.619 30.82C121.403 31.108 121.151 31.396 120.899 31.684C119.891 32.8 118.415 32.224 117.911 31.144C117.659 30.568 117.623 29.956 117.623 29.344C117.659 28.516 117.803 27.724 118.091 26.932C118.739 25.132 119.711 23.512 121.115 22.216C121.655 21.712 122.267 21.28 122.987 21.064C123.959 20.74 124.787 20.992 125.507 21.64C125.651 21.748 125.687 21.928 125.867 21.964C126.047 21.82 126.083 21.64 126.155 21.46C127.307 18.868 128.495 16.348 129.899 13.9C130.007 13.72 130.115 13.576 130.223 13.396C130.583 12.892 131.159 12.784 131.663 13.108C131.879 13.216 131.663 13.396 131.771 13.468C131.879 13.54 131.987 13.288 132.131 13.432C132.383 13.648 132.527 14.044 132.419 14.332C132.239 14.728 132.059 15.16 131.879 15.556C130.367 18.544 128.891 21.568 127.559 24.664C126.947 26.104 126.335 27.58 125.831 29.092C125.687 29.524 125.579 29.956 125.471 30.388C125.399 30.64 125.399 30.892 125.471 31.18ZM119.747 30.64C119.891 30.496 119.999 30.424 120.107 30.316C121.691 28.552 123.167 26.68 124.715 24.844C125.075 24.412 125.327 23.836 124.967 23.224C124.751 22.9 124.715 22.864 124.355 23.044C123.923 23.224 123.563 23.548 123.203 23.872C121.547 25.492 120.503 27.508 119.855 29.74C119.783 29.992 119.675 30.244 119.747 30.64ZM128.891 19.12C129.935 17.392 131.123 14.944 131.087 14.62C130.295 16.096 129.539 17.608 128.891 19.12ZM122.303 23.26C121.655 23.656 121.259 24.268 120.899 24.916C121.367 24.376 121.871 23.836 122.303 23.26ZM124.643 30.172C124.679 30.316 124.607 30.424 124.751 30.568C124.715 30.424 124.751 30.316 124.643 30.172ZM136.999 30.964C137.359 30.748 137.575 30.532 137.827 30.316C139.051 29.128 140.131 27.832 141.247 26.536C141.571 26.14 141.931 25.78 142.255 25.384C142.399 25.24 142.507 25.168 142.687 25.348C142.795 25.456 142.831 25.528 142.723 25.672C142.687 25.744 142.615 25.816 142.579 25.888C141.427 27.472 140.203 29.02 138.943 30.532C138.547 30.964 138.115 31.396 137.647 31.792C137.179 32.188 136.639 32.26 136.099 32.044C135.523 31.792 135.271 31.288 135.235 30.676C135.163 29.884 135.271 29.092 135.451 28.3C135.235 28.264 135.199 28.408 135.163 28.48C134.587 29.236 134.047 29.992 133.471 30.748C133.255 31.036 133.003 31.324 132.751 31.576C131.743 32.656 130.303 32.116 129.799 31.036C129.439 30.28 129.403 29.488 129.547 28.66C129.907 26.14 131.059 24.016 132.859 22.252C133.291 21.784 133.795 21.424 134.371 21.136C135.811 20.416 137.107 20.956 137.863 22.144C137.971 22.288 138.007 22.468 138.187 22.576C138.403 22.324 138.619 22.072 138.871 21.82C139.267 21.388 139.555 21.352 140.095 21.568C140.347 21.64 140.311 21.964 140.383 21.964C140.671 21.928 140.707 22.108 140.779 22.252C140.959 22.54 140.887 22.792 140.743 23.044C140.419 23.62 140.059 24.196 139.699 24.772C138.619 26.608 137.719 28.552 137.107 30.568C137.071 30.676 137.035 30.748 136.999 30.964ZM131.635 30.532C131.923 30.28 132.103 30.1 132.247 29.884C133.759 28.156 135.199 26.392 136.711 24.664C137.071 24.268 137.179 23.908 136.963 23.44C136.927 23.368 136.891 23.296 136.855 23.224C136.675 22.756 136.603 22.72 136.135 22.972C135.739 23.188 135.415 23.44 135.091 23.764C133.399 25.42 132.319 27.436 131.707 29.704C131.635 29.956 131.599 30.172 131.635 30.532ZM134.407 23.008C133.651 23.44 133.147 24.052 132.895 24.664C133.399 24.052 133.903 23.548 134.407 23.008ZM138.583 24.556C138.619 24.628 138.655 24.628 138.691 24.592C138.943 24.196 139.231 23.836 139.411 23.368C139.051 23.728 138.835 24.124 138.583 24.556ZM145.394 21.748C145.358 21.856 145.322 22.036 145.25 22.18C145.466 22.18 145.466 21.964 145.61 21.928C146.078 22.36 146.114 22.504 145.862 23.08C145.718 23.44 145.574 23.764 145.394 24.088C145.25 24.412 145.106 24.7 144.998 25.06C145.394 24.664 145.754 24.232 146.15 23.836C146.69 23.224 147.338 22.684 147.986 22.144C148.346 21.856 148.778 21.568 149.246 21.388C149.786 21.136 150.326 21.172 150.866 21.388C151.154 21.532 151.334 21.784 151.55 22C151.802 22.252 151.802 22.612 151.586 22.972C151.082 23.836 150.578 24.736 150.11 25.636C149.282 27.256 148.562 28.948 148.022 30.676C147.95 30.82 147.95 31 147.914 31.144C147.878 31.18 147.914 31.216 147.914 31.252C148.094 31.324 148.13 31.18 148.202 31.108C149.534 29.884 150.65 28.48 151.766 27.076C152.198 26.536 152.63 25.96 153.098 25.456C153.278 25.276 153.386 25.312 153.566 25.492C153.71 25.636 153.602 25.708 153.53 25.816C153.206 26.32 152.846 26.86 152.486 27.364C151.514 28.696 150.506 29.992 149.462 31.288C149.21 31.576 148.886 31.828 148.634 32.152C148.166 32.62 147.626 32.728 147.014 32.512C146.402 32.296 146.15 31.792 146.078 31.18C146.006 30.388 146.078 29.596 146.258 28.804C146.582 27.328 147.122 25.924 147.806 24.556C147.914 24.34 148.022 24.124 148.166 23.8C147.914 23.872 147.806 24.052 147.662 24.16C145.61 26.284 143.882 28.66 142.406 31.216C142.226 31.504 142.046 31.828 141.866 32.116C141.578 32.476 141.218 32.692 140.714 32.656C140.066 32.584 139.706 32.116 139.814 31.468C139.922 30.964 140.102 30.496 140.282 29.992C141.182 27.724 142.154 25.492 143.198 23.296C143.414 22.9 143.594 22.468 143.81 22.072C144.134 21.388 144.422 21.28 145.106 21.532C145.214 21.568 145.322 21.604 145.394 21.748ZM144.494 23.8C144.062 24.484 143.702 25.24 143.414 25.996C143.81 25.276 144.206 24.592 144.494 23.8ZM149.498 24.628C149.714 24.448 149.786 24.232 149.93 24.016C150.038 23.8 150.182 23.584 150.29 23.368C149.858 23.692 149.678 24.16 149.498 24.628ZM153.521 31.288C154.457 30.46 155.249 29.596 156.005 28.696C156.689 27.832 157.409 26.932 158.093 26.068C158.273 25.888 158.417 25.672 158.597 25.492C158.921 25.168 158.921 25.168 159.281 25.528C158.309 26.932 157.301 28.336 156.257 29.704C155.609 30.532 154.997 31.36 154.205 32.08C153.917 32.332 153.629 32.512 153.233 32.548C152.405 32.584 151.829 32.08 151.685 31.216C151.577 30.352 151.649 29.488 151.865 28.66C152.441 26.212 153.449 23.98 154.961 22C155.033 21.856 155.141 21.748 155.249 21.64C155.825 21.064 156.221 21.064 156.797 21.712C156.869 21.784 156.977 21.712 157.049 21.784C157.301 22 157.409 22.432 157.229 22.756C156.941 23.368 156.617 23.944 156.257 24.556C155.177 26.428 154.313 28.444 153.629 30.532C153.557 30.748 153.449 30.964 153.521 31.288ZM155.033 24.664C155.249 24.484 155.357 24.232 155.465 23.98C155.573 23.764 155.825 23.584 155.825 23.296C155.681 23.332 155.645 23.404 155.609 23.476C155.357 23.836 155.177 24.232 155.033 24.664ZM155.753 18.436C155.789 17.14 156.761 16.348 158.021 16.564C158.093 16.6 158.201 16.636 158.273 16.6C158.705 16.456 158.993 16.672 159.245 16.924C159.569 17.212 159.785 17.536 159.893 17.932C159.965 18.148 159.965 18.364 159.929 18.58C159.713 19.444 159.065 19.912 158.273 20.2C157.517 20.452 156.869 20.236 156.293 19.696C155.933 19.372 155.753 18.904 155.753 18.436ZM157.517 19.264C157.553 19.264 157.625 19.264 157.697 19.228C158.201 19.012 158.525 18.58 158.705 18.076C158.777 17.896 158.633 17.86 158.489 17.86C158.093 17.896 157.337 18.616 157.265 19.012C157.265 19.156 157.301 19.264 157.517 19.264Z" fill="white"/>
</svg>
